<?xml version="1.0" encoding="UTF-8"?>
<svg xmlns="http://www.w3.org/2000/svg" xmlns:xlink="http://www.w3.org/1999/xlink" viewBox="0 0 384 384" width="384px" height="384px">
<g id="surface71450453">
<path style=" stroke:none;fill-rule:evenodd;fill:rgb(100%,100%,100%);fill-opacity:1;" d="M 192 16 C 95.027344 16 16.09375 94.988281 16.09375 192 C 16.09375 281.070312 82.492188 354.960938 168.5625 366.4375 L 169.0625 366.5 C 169.0625 366.5 182.667969 368 192 368 C 288.972656 368 367.90625 289.011719 367.90625 192 C 367.90625 94.988281 288.972656 16 192 16 Z M 192 48 C 271.667969 48 335.90625 112.273438 335.90625 192 C 335.90625 271.175781 272.53125 335.027344 193.625 335.90625 C 202.113281 332.039062 215.019531 326.058594 235.875 310 C 264.324219 288.09375 295.855469 255.152344 302.6875 210.15625 L 302.6875 210.125 C 303.539062 204.488281 304 198.773438 304 193 C 304 131.703125 254.296875 81.582031 193.125 80.96875 C 131.898438 80.355469 81.480469 129.066406 80.03125 190.3125 C 78.859375 240.675781 111.085938 284.023438 156.3125 299.21875 C 157.113281 299.488281 157.71875 300.277344 157.71875 301.34375 L 157.71875 331.8125 C 94.789062 316.453125 48.09375 259.878906 48.09375 192 C 48.09375 112.273438 112.332031 48 192 48 Z M 192.8125 112.96875 C 236.792969 113.410156 272 148.886719 272 193 C 272 197.117188 271.683594 201.222656 271.0625 205.34375 C 266.132812 237.800781 241.390625 265.339844 216.34375 284.625 C 202.625 295.1875 199.070312 295.808594 189.5625 300.875 C 189.347656 286.5625 180.316406 273.542969 166.5 268.90625 C 134.285156 258.082031 111.15625 227.386719 112 191.0625 C 113.046875 146.773438 148.535156 112.527344 192.8125 112.96875 Z M 192.8125 112.96875 "/>
</g>
</svg>
